<?xml version="1.0" encoding="UTF-8"?>
<svg width="40px" height="39px" viewBox="0 0 40 39" version="1.1" xmlns="http://www.w3.org/2000/svg" xmlns:xlink="http://www.w3.org/1999/xlink">
    <title>logo_github</title>
    <g id="Symbols" stroke="none" stroke-width="1" fill="none" fill-rule="evenodd">
        <g id="Footer" transform="translate(-160.000000, -470.000000)" fill="#CBCBCB">
            <path d="M197.317123,479.955856 C195.529438,476.893762 193.103231,474.468029 190.039401,472.681358 C186.974671,470.893786 183.628954,470 179.99955,470 C176.371946,470 173.024429,470.894686 169.961499,472.681358 C166.89767,474.468029 164.470562,476.893762 162.682877,479.955856 C160.895193,483.01795 160,486.361771 160,489.98822 C160,494.343738 161.272543,498.260914 163.815828,501.738848 C166.359113,505.217682 169.643589,507.625414 173.671958,508.962042 C174.141169,509.04845 174.487898,508.987244 174.713047,508.779325 C174.939097,508.571405 175.051672,508.31128 175.051672,507.99895 C175.051672,507.947645 175.047169,507.4787 175.039063,506.593915 C175.030057,505.70823 175.025554,504.936855 175.025554,504.277092 L174.426658,504.381502 C174.044805,504.450809 173.562985,504.480512 172.982101,504.472411 C172.400315,504.46431 171.796015,504.403104 171.171901,504.289693 C170.545987,504.178083 169.965102,503.917958 169.426545,503.510218 C168.888889,503.102479 168.507036,502.568728 168.280986,501.909865 L168.020714,501.311307 C167.846899,500.911669 167.574018,500.468826 167.201171,499.98368 C166.827423,499.497633 166.450073,499.168201 166.06822,498.994485 L165.885399,498.863972 C165.763819,498.777564 165.651244,498.673154 165.547675,498.551642 C165.442306,498.430131 165.364854,498.308619 165.31262,498.187107 C165.260385,498.065596 165.303614,497.965686 165.442306,497.887378 C165.581898,497.809071 165.833164,497.771267 166.197906,497.771267 L166.718451,497.848675 C167.066081,497.917981 167.495666,498.125901 168.008105,498.473335 C168.519644,498.819868 168.941123,499.271711 169.270742,499.826165 C169.670607,500.537233 170.151525,501.079985 170.716199,501.453521 C171.279973,501.826157 171.84915,502.012475 172.421029,502.012475 C172.994709,502.012475 173.489137,501.96927 173.906113,501.882862 C174.322188,501.796454 174.713047,501.665041 175.077789,501.492225 C175.233592,500.329313 175.659574,499.436427 176.353934,498.810867 C175.364179,498.707357 174.474389,498.550742 173.684566,498.342822 C172.894743,498.134002 172.078802,497.79557 171.236744,497.327525 C170.393786,496.85858 169.695823,496.277124 169.140155,495.583157 C168.585388,494.890091 168.128785,493.978303 167.77305,492.850495 C167.417314,491.722686 167.239896,490.421161 167.239896,488.94682 C167.239896,486.846918 167.92525,485.060246 169.296859,483.585005 C168.654734,482.006253 168.715074,480.236683 169.47968,478.276295 C169.982213,478.11968 170.729708,478.237591 171.718564,478.626429 C172.708319,479.017966 173.432399,479.351898 173.892604,479.630025 C174.353709,479.906351 174.722053,480.141274 175.000338,480.332092 C176.615108,479.881149 178.281211,479.655227 179.99955,479.655227 C181.718789,479.655227 183.384892,479.881149 185.000563,480.332092 L185.990319,479.708332 C186.666667,479.291592 187.466396,478.909056 188.385005,478.562522 C189.305415,478.215089 190.009681,478.11968 190.496004,478.276295 C191.276821,480.236683 191.346167,482.006253 190.703141,483.585005 C192.07475,485.060246 192.760104,486.847818 192.760104,488.94682 C192.760104,490.422061 192.581785,491.727187 192.22695,492.863996 C191.871215,494.000805 191.41101,494.910793 190.847236,495.596658 C190.282562,496.282524 189.579196,496.85858 188.738039,497.327525 C187.895981,497.79557 187.07914,498.134002 186.289317,498.342822 C185.499493,498.550742 184.610605,498.707357 183.620849,498.811767 C184.523247,499.592142 184.974446,500.82436 184.974446,502.507522 L184.974446,507.998049 C184.974446,508.310379 185.082517,508.570504 185.299561,508.778424 C185.516605,508.986344 185.859732,509.04755 186.328943,508.961142 C190.356411,507.624514 193.642688,505.216782 196.185073,501.737948 C198.728358,498.260014 200,494.342838 200,489.98822 C200,486.361771 199.104807,483.01795 197.317123,479.955856" id="logo_github"></path>
        </g>
    </g>
</svg>