<?xml version="1.0" encoding="UTF-8"?>
<svg width="40px" height="40px" viewBox="0 0 40 40" version="1.1" xmlns="http://www.w3.org/2000/svg" xmlns:xlink="http://www.w3.org/1999/xlink">
    <title>logo_twitter</title>
    <g id="Symbols" stroke="none" stroke-width="1" fill="none" fill-rule="evenodd">
        <g id="Footer" transform="translate(-96.000000, -470.000000)" fill="#CBCBCB">
            <path d="M105.231116,498.409321 C105.603963,498.457053 105.984915,498.48227 106.37037,498.48227 C108.605651,498.485872 110.662614,497.678937 112.294495,496.325341 C110.205111,496.275808 108.444444,494.79973 107.838343,492.773387 C108.129236,492.834628 108.429134,492.869751 108.735337,492.872453 C109.171226,492.874254 109.591805,492.814815 109.991669,492.700439 C107.808623,492.217719 106.163233,490.146347 106.163233,487.679613 L106.163233,487.61477 C106.80716,488.002927 107.541146,488.238883 108.325566,488.274007 C107.047619,487.349994 106.204661,485.779354 106.204661,484.012383 C106.204661,483.077564 106.440617,482.205786 106.850388,481.460092 C109.204548,484.571654 112.720477,486.636722 116.684003,486.894292 C116.602049,486.523247 116.560621,486.13599 116.560621,485.741529 C116.560621,482.95148 118.695936,480.725205 121.331082,480.768434 C122.702691,480.79185 123.943713,481.423168 124.813689,482.412023 C125.900709,482.203985 126.921986,481.80412 127.842396,481.243949 C127.487561,482.40752 126.729258,483.378363 125.744005,483.984465 C126.710346,483.876393 127.628054,483.621524 128.484521,483.234268 C127.844197,484.230328 127.035461,485.099403 126.103343,485.794664 C126.11325,486.009907 126.116852,486.22695 126.116852,486.442193 C126.116852,493.066081 121.316672,500.704942 112.541259,500.700446 C109.850276,500.703141 107.341214,499.858381 105.231116,498.409321 M136,489.99955 C136,478.953732 127.045368,470 116.00045,470 C104.954632,470 96,478.953732 96,489.99955 C96,501.045368 104.954632,510 116.00045,510 C127.045368,510 136,501.045368 136,489.99955" id="logo_twitter"></path>
        </g>
    </g>
</svg>