<?xml version="1.0" encoding="UTF-8"?>
<svg width="40px" height="40px" viewBox="0 0 40 40" version="1.1" xmlns="http://www.w3.org/2000/svg" xmlns:xlink="http://www.w3.org/1999/xlink">
    <title>logo_facebook</title>
    <g id="Symbols" stroke="none" stroke-width="1" fill="none" fill-rule="evenodd">
        <g id="Footer" transform="translate(-224.000000, -470.000000)" fill="#CBCBCB">
            <path d="M243.99955,470 C232.953732,470 224,478.953732 224,489.99955 C224,501.045368 232.953732,510 243.99955,510 C244.025667,510 244.051784,509.997298 244.077902,509.997298 L244.077902,496.92874 L239.343465,496.92874 L239.343465,491.446809 L244.077902,491.446809 L244.077902,487.40403 C244.077902,482.711922 246.9436,480.156929 251.128673,480.156929 C253.133401,480.156929 254.857143,480.306428 255.357875,480.373973 L255.357875,485.276821 L252.456152,485.278622 C250.179444,485.278622 249.739052,486.359338 249.739052,487.94709 L249.739052,491.446809 L255.166948,491.446809 L254.45998,496.92874 L249.739052,496.92874 L249.739052,509.158843 C257.986716,506.692109 264,499.049645 264,489.99955 C264,478.953732 255.045368,470 243.99955,470" id="logo_facebook"></path>
        </g>
    </g>
</svg>