<?xml version="1.0" encoding="UTF-8"?>
<svg width="40px" height="40px" viewBox="0 0 40 40" version="1.1" xmlns="http://www.w3.org/2000/svg" xmlns:xlink="http://www.w3.org/1999/xlink">
    <title>logo_linkedin</title>
    <g id="Symbols" stroke="none" stroke-width="1" fill="none" fill-rule="evenodd">
        <g id="Footer" transform="translate(-288.000000, -470.000000)" fill="#CBCBCB">
            <path d="M319.568614,501.049871 L315.370933,501.049871 L315.370933,493.209276 C315.370933,488.497354 309.774626,488.853991 309.774626,493.209276 L309.774626,501.049871 L305.577845,501.049871 L305.577845,485.660475 L309.774626,485.660475 L309.774626,488.12901 C311.72802,484.512214 319.568614,484.244737 319.568614,491.593606 L319.568614,501.049871 Z M300.681301,483.8863 C299.329506,483.8863 298.23348,482.781268 298.23348,481.418665 C298.23348,480.055162 299.329506,478.950129 300.681301,478.950129 C302.032196,478.950129 303.129123,480.055162 303.129123,481.418665 C303.129123,482.781268 302.033998,483.8863 300.681301,483.8863 L300.681301,483.8863 Z M298.582011,501.049871 L302.779692,501.049871 L302.779692,485.660475 L298.582011,485.660475 L298.582011,501.049871 Z M307.99955,470 C296.954632,470 288,478.954632 288,489.99955 C288,501.045368 296.954632,510 307.99955,510 C319.045368,510 328,501.045368 328,489.99955 C328,478.954632 319.045368,470 307.99955,470 L307.99955,470 Z" id="logo_linkedin"></path>
        </g>
    </g>
</svg>