<?xml version="1.0" encoding="UTF-8"?>
<svg width="30px" height="31px" viewBox="0 0 30 31" version="1.1" xmlns="http://www.w3.org/2000/svg" xmlns:xlink="http://www.w3.org/1999/xlink">
    <title>icn_customerservice</title>
    <g id="Page-1" stroke="none" stroke-width="1" fill="none" fill-rule="evenodd">
        <g id="02_Megamenu_Solutions" transform="translate(-337.000000, -236.000000)">
            <g id="Page"></g>
            <g id="icn_customerservice" transform="translate(337.000000, 236.666667)">
                <circle id="Oval-Copy-4" fill="#E2EEF5" cx="15" cy="15" r="15"></circle>
                <g id="Group-11" transform="translate(6.000000, 6.333333)" stroke="#002DB4" stroke-width="0.7">
                    <path d="M1.48994259,6.75112659 C0.722846118,7.01156894 0.169434353,7.73800659 0.169434353,8.59184188 L0.169434353,10.5353336 C0.169434353,11.6075972 1.04156612,12.4795031 2.11360376,12.4795031 L2.95953318,12.4795031 C3.14656376,12.4795031 3.29835671,12.3277101 3.29835671,12.1406795 L3.29835671,6.98672188 C3.29835671,6.79969129 3.14656376,6.64789835 2.95953318,6.64789835 L2.17233318,6.64789835 L1.48994259,6.75112659 Z" id="Stroke-1"></path>
                    <path d="M16.4760395,12.3750099 C17.2408772,12.1134381 17.7924819,11.387904 17.7924819,10.5351981 L17.7924819,8.59193224 C17.7924819,7.73809694 17.2388442,7.01165929 16.4719736,6.75121694 L15.7895831,6.64798871 L15.0023831,6.64798871 C14.8151266,6.64798871 14.6635595,6.79955576 14.6635595,6.98681224 L14.6635595,12.1407699 C14.6635595,12.3278005 14.8151266,12.4795934 15.0023831,12.4795934 L15.7983925,12.4795934 L16.4760395,12.3750099 Z" id="Stroke-3"></path>
                    <path d="M11.1018466,15.0163426 C10.9484725,14.3779991 10.3742795,13.9013873 9.68963012,13.9013873 L8.27221835,13.9013873 C7.47056188,13.9013873 6.81843953,14.5537355 6.81843953,15.355392 C6.81843953,16.1568226 7.47056188,16.8091708 8.27221835,16.8091708 L9.68963012,16.8091708 C10.3745054,16.8091708 10.9486984,16.3325591 11.1018466,15.6942155 L11.1018466,15.0163426 Z" id="Stroke-5"></path>
                    <path d="M2.17233318,6.64789835 C2.34965082,3.04552659 5.33558965,0.169366588 8.98110494,0.169366588 C12.6263944,0.169366588 15.6123332,3.04552659 15.7896508,6.64789835" id="Stroke-7"></path>
                    <path d="M15.7982795,12.4804518 L15.7982795,12.8969788 C15.7982795,14.2346541 14.7102042,15.3227294 13.3725289,15.3227294 L11.1019595,15.3227294" id="Stroke-9"></path>
                </g>
            </g>
        </g>
    </g>
</svg>