<?xml version="1.0" encoding="UTF-8"?>
<svg width="52px" height="52px" viewBox="0 0 52 52" version="1.1" xmlns="http://www.w3.org/2000/svg" xmlns:xlink="http://www.w3.org/1999/xlink">
    <title>Icn_Connectivity</title>
    <g id="Top-Nav-Desktop---Redesign-4/8/21" stroke="none" stroke-width="1" fill="none" fill-rule="evenodd">
        <g id="01_Megamenu_Platform" transform="translate(-168.000000, -185.000000)">
            <g id="Page"></g>
            <g id="Icn_Connectivity" transform="translate(169.000000, 186.000000)">
                <rect id="Rectangle" stroke="#E5E5E5" fill="#F2F2F2" x="0" y="0" width="50" height="50" rx="5"></rect>
                <g id="Group-14" transform="translate(2.526507, 2.601053)">
                    <g id="Group-13" stroke="#000000" stroke-width="0.7">
                        <line x1="0.314401914" y1="0.239856459" x2="10.9271183" y2="10.9259984" id="Stroke-1"></line>
                        <line x1="44.6325837" y1="44.5580383" x2="33.945226" y2="33.9463459" id="Stroke-3"></line>
                        <line x1="20.0860486" y1="25.1853743" x2="22.4798485" y2="27.5791742" id="Stroke-6"></line>
                        <line x1="25.272615" y1="20.3977746" x2="27.6664149" y2="22.7915744" id="Stroke-7"></line>
                        <path d="M10.8744814,10.8354781 L10.8744814,10.8354781 C14.070345,7.68400145 19.2522177,7.68400145 22.4458284,10.8354781 L25.5628375,13.9080845 L13.990364,25.3198292 L10.8744814,22.2461119 C7.67861774,19.0957461 7.67861774,13.9869548 10.8744814,10.8354781 Z" id="Stroke-8" fill="#00E5BF"></path>
                        <path d="M34.0193157,33.658301 L34.0193157,33.658301 C30.8234521,36.8097776 25.6415794,36.8097776 22.4468422,33.658301 L19.3309597,30.5856945 L30.9034331,19.1739499 L34.0193157,22.2465563 C37.2151794,25.3980329 37.2151794,30.5068243 34.0193157,33.658301 Z" id="Stroke-10" fill="#00E5BF"></path>
                    </g>
                    <g id="Group-2" transform="translate(33.837129, 3.080766)" fill="#000000">
                        <circle id="Oval" cx="1.13636364" cy="6.81818182" r="1.13636364"></circle>
                        <circle id="Oval-Copy-9" cx="1.13636364" cy="1.13636364" r="1.13636364"></circle>
                        <circle id="Oval-Copy-8" cx="6.81818182" cy="3.40909091" r="1.13636364"></circle>
                    </g>
                    <g id="Group-2-Copy" transform="translate(8.268947, 36.603493) rotate(-151.000000) translate(-8.268947, -36.603493) translate(4.291675, 32.626220)" fill="#000000">
                        <circle id="Oval" cx="1.13636364" cy="6.81818182" r="1.13636364"></circle>
                        <circle id="Oval-Copy-9" cx="1.13636364" cy="1.13636364" r="1.13636364"></circle>
                        <circle id="Oval-Copy-8" cx="6.81818182" cy="3.40909091" r="1.13636364"></circle>
                    </g>
                </g>
            </g>
        </g>
    </g>
</svg>