<?xml version="1.0" encoding="UTF-8"?>
<svg width="52px" height="52px" viewBox="0 0 52 52" version="1.1" xmlns="http://www.w3.org/2000/svg" xmlns:xlink="http://www.w3.org/1999/xlink">
    <title>Icn_Automation</title>
    <g id="Top-Nav-Desktop---Redesign-4/8/21" stroke="none" stroke-width="1" fill="none" fill-rule="evenodd">
        <g id="01_Megamenu_Platform" transform="translate(-365.000000, -185.000000)">
            <g id="Page"></g>
            <g id="Icn_Automation" transform="translate(366.000000, 186.000000)">
                <rect id="Rectangle-Copy-4" stroke="#E5E5E5" fill="#F2F2F2" x="0" y="0" width="50" height="50" rx="5"></rect>
                <path d="M29.6518435,25.7189313 C29.1622743,28.1565577 26.7874424,29.7357726 24.3498933,29.2443157 C21.9114081,28.7537948 20.3331792,26.3798238 20.8236845,23.9421975 C21.3151259,21.5045711 23.6890217,19.9253562 26.1265708,20.415877 C28.56412,20.9063978 30.1423488,23.2813049 29.6518435,25.7189313 Z M35.5968798,25.5026902 C35.7073371,23.8233117 35.4124723,22.1907386 34.7750027,20.7163678 L38.2160283,18.4275827 L36.2989389,15.5434326 L32.8859957,17.8125594 C31.8216741,16.6499127 30.489634,15.7250376 28.9554009,15.1380976 L29.8062965,10.9106319 L26.4102027,10.2272727 L25.5602432,14.4547384 C23.8322417,14.399508 22.1650854,14.7767597 20.6767202,15.5059882 L18.2915914,11.9188207 L15.4075327,13.8369069 L17.8572509,17.5214297 C16.7835685,18.603571 15.9448419,19.9337811 15.4262543,21.4418518 L10.9106102,20.5328905 L10.2272727,23.9290919 L14.8468215,24.8586476 C14.8496297,26.3760794 15.1950428,27.8382808 15.8081744,29.1684909 L11.7830357,31.8438888 L13.7010611,34.728975 L17.7552183,32.0329827 C18.7905214,33.1104435 20.0673329,33.9669827 21.5201271,34.522095 L20.6018339,39.0893681 L23.9969916,39.7727273 L24.9162209,35.2063903 C26.3858646,35.2531957 27.8124487,34.9929576 29.122959,34.4640563 L31.7074725,38.3526508 L34.5915312,36.4355007 L32.0716071,32.6433254 C33.2360891,31.6276477 34.1871452,30.3545403 34.8105737,28.8773612 L39.0893898,29.7376448 L39.7727273,26.3423795 L35.5968798,25.5026902 Z" id="Stroke-1" stroke="#000000" stroke-width="0.7" fill="#00E5BF"></path>
                <path d="M25,45.4545455 C36.2967335,45.4545455 45.4545455,36.2967335 45.4545455,25 C45.4545455,13.7032665 36.2967335,4.54545455 25,4.54545455 C13.7032665,4.54545455 4.54545455,13.7032665 4.54545455,25 C4.54545455,36.2967335 13.7032665,45.4545455 25,45.4545455 Z" id="Oval" stroke="#000000" stroke-width="0.7" stroke-dasharray="4"></path>
            </g>
        </g>
    </g>
</svg>