<?xml version="1.0" encoding="UTF-8"?>
<svg width="52px" height="52px" viewBox="0 0 52 52" version="1.1" xmlns="http://www.w3.org/2000/svg" xmlns:xlink="http://www.w3.org/1999/xlink">
    <title>Icn_Security</title>
    <g id="Top-Nav-Desktop---Redesign-4/8/21" stroke="none" stroke-width="1" fill="none" fill-rule="evenodd">
        <g id="01_Megamenu_Platform" transform="translate(-578.000000, -185.000000)">
            <g id="Page"></g>
            <g id="Icn_Security" transform="translate(579.000000, 186.000000)">
                <rect id="Rectangle-Copy-6" stroke="#E5E5E5" fill="#F2F2F2" x="0" y="0" width="50" height="50" rx="5"></rect>
                <circle id="Oval" stroke="#000000" stroke-width="0.7" cx="25" cy="25" r="21.5909091"></circle>
                <g id="Group-10" transform="translate(25.568182, 25.000000) rotate(-90.000000) translate(-25.568182, -25.000000) translate(25.000000, 3.409091)" stroke="#000000" stroke-linecap="square" stroke-width="0.7">
                    <line x1="0.568181818" y1="3.97727273" x2="0.568181818" y2="0.568181818" id="Line"></line>
                    <line x1="0.568181818" y1="42.6136364" x2="0.568181818" y2="39.2045455" id="Line-Copy"></line>
                </g>
                <g id="Group-10" transform="translate(25.000000, 3.409091)" stroke="#000000" stroke-linecap="square" stroke-width="0.7">
                    <line x1="0.568181818" y1="3.97727273" x2="0.568181818" y2="0.568181818" id="Line"></line>
                    <line x1="0.568181818" y1="42.6136364" x2="0.568181818" y2="39.2045455" id="Line-Copy"></line>
                </g>
                <g id="Group-6" transform="translate(17.045455, 11.363636)">
                    <path d="M4.04131431,4.45597288 L4.04131431,4.45597288 C4.04131431,1.99482507 6.03663759,0 8.49728719,0 C10.958435,0 12.9537583,1.99482507 12.9537583,4.45597288 L12.9537583,8.99614292 L4.04131431,8.99614292 L4.04131431,4.45597288 Z" id="Stroke-1" stroke="#000000" stroke-width="0.7"></path>
                    <polygon id="Stroke-3" stroke="#000000" stroke-width="0.7" fill="#00E5BF" points="0 25.991913 16.9953715 25.991913 16.9953715 8.99604328 0 8.99604328"></polygon>
                    <path d="M10.0908555,18.5388699 C10.0908555,17.6585363 9.37742155,16.9456005 8.49758612,16.9456005 C7.61725248,16.9456005 6.90431675,17.6585363 6.90431675,18.5388699 C6.90431675,19.1556515 7.25505522,19.6897305 7.76771131,19.954279 L7.76771131,22.4333623 L9.22746093,22.4333623 L9.22746093,19.954279 C9.74011702,19.6897305 10.0908555,19.1556515 10.0908555,18.5388699" id="Fill-5" fill="#008C75"></path>
                </g>
            </g>
        </g>
    </g>
</svg>