<?xml version="1.0" encoding="UTF-8"?>
<svg width="52px" height="52px" viewBox="0 0 52 52" version="1.1" xmlns="http://www.w3.org/2000/svg" xmlns:xlink="http://www.w3.org/1999/xlink">
    <title>Icn_Intelligence</title>
    <g id="Top-Nav-Desktop---Redesign-4/8/21" stroke="none" stroke-width="1" fill="none" fill-rule="evenodd">
        <g id="01_Megamenu_Platform" transform="translate(-268.000000, -185.000000)">
            <g id="Page"></g>
            <g id="Icn_Intelligence" transform="translate(269.000000, 186.000000)">
                <rect id="Rectangle-Copy-2" stroke="#E5E5E5" fill="#F2F2F2" x="0" y="0" width="50" height="50" rx="5"></rect>
                <g id="Group-19" transform="translate(3.972908, 5.681818)">
                    <path d="M23.9941143,32.5346112 C24.4875245,25.9634284 28.5062207,27.0059718 28.5062207,20.2796155 C28.5062207,16.0369655 25.073681,12.5971297 20.838886,12.5971297 C16.6031636,12.5971297 13.1696965,16.0369655 13.1696965,20.2796155 C13.1696965,27.0059718 17.1883926,25.9634284 17.6827303,32.5346112" id="Stroke-1" stroke="#000000" stroke-width="0.7" fill="#00E5BF"></path>
                    <polygon id="Rectangle" fill="#F2F2F2" points="17.3872406 30.2488792 24.2886765 30.2488792 23.9052634 32.5346112 17.7706537 32.5346112"></polygon>
                    <line x1="17.3872406" y1="30.2341326" x2="24.2886765" y2="30.2341326" id="Stroke-3" stroke="#000000" stroke-width="0.7"></line>
                    <line x1="20.8379586" y1="9.1464118" x2="20.8379586" y2="4.54545455" id="Stroke-5" stroke="#000000" stroke-width="0.7"></line>
                    <line x1="28.792504" y1="4.60095726" x2="30.6861833" y2="0.568181818" id="Stroke-5-Copy" stroke="#000000" stroke-width="0.7"></line>
                    <line x1="11.1261267" y1="4.60095726" x2="13.019806" y2="0.568181818" id="Stroke-5-Copy-2" stroke="#000000" stroke-width="0.7" transform="translate(12.447259, 2.840909) scale(-1, 1) translate(-12.447259, -2.840909) "></line>
                    <line x1="6.90797701" y1="32.049107" x2="9.89578742" y2="34.6590909" id="Stroke-10-Copy-2" stroke="#000000" stroke-width="0.7" transform="translate(8.612522, 33.274386) scale(-1, 1) translate(-8.612522, -33.274386) "></line>
                    <line x1="-1.29189588e-13" y1="15.9411793" x2="4.03437885" y2="15.3409091" id="Stroke-15-Copy" stroke="#000000" stroke-width="0.7" transform="translate(2.272727, 15.475773) scale(-1, 1) translate(-2.272727, -15.475773) "></line>
                    <line x1="9.55858915" y1="22.9581979" x2="5.1177452" y2="22.9581979" id="Stroke-7" stroke="#000000" stroke-width="0.7"></line>
                    <line x1="32.2438275" y1="22.9581979" x2="36.8697066" y2="22.9581979" id="Stroke-10" stroke="#000000" stroke-width="0.7"></line>
                    <line x1="32.2438275" y1="32.049107" x2="35.2316379" y2="34.6590909" id="Stroke-10-Copy" stroke="#000000" stroke-width="0.7"></line>
                    <line x1="11.636044" y1="12.9805429" x2="7.80191299" y2="10.2966511" id="Stroke-13" stroke="#000000" stroke-width="0.7"></line>
                    <line x1="30.4232862" y1="12.9805429" x2="34.2574172" y2="10.2966511" id="Stroke-15" stroke="#000000" stroke-width="0.7"></line>
                    <path d="M23.9941143,32.5346112 C24.4875245,25.9634284 28.5062207,27.0059718 28.5062207,20.2796155 C28.5062207,16.0369655 25.073681,12.5971297 20.838886,12.5971297 C16.6031636,12.5971297 13.1696965,16.0369655 13.1696965,20.2796155 C13.1696965,27.0059718 17.1883926,25.9634284 17.6827303,32.5346112" id="Stroke-1" stroke="#000000" stroke-width="0.7"></path>
                    <line x1="38.0154408" y1="15.9411793" x2="42.0498197" y2="15.3409091" id="Stroke-15" stroke="#000000" stroke-width="0.7"></line>
                    <path d="M17.7706537,32.5346112 C17.7706537,34.6609151 19.1432129,35.2185029 20.8375079,35.2185029 C22.5309017,35.2185029 23.9052634,34.6609151 23.9052634,32.5346112 L17.7706537,32.5346112 Z" id="Stroke-17" stroke="#000000" stroke-width="0.7"></path>
                </g>
            </g>
        </g>
    </g>
</svg>