<?xml version="1.0" encoding="UTF-8"?>
<svg width="30px" height="31px" viewBox="0 0 30 31" version="1.1" xmlns="http://www.w3.org/2000/svg" xmlns:xlink="http://www.w3.org/1999/xlink">
    <title>icn_scheduling</title>
    <g id="Page-1" stroke="none" stroke-width="1" fill="none" fill-rule="evenodd">
        <g id="02_Megamenu_Solutions" transform="translate(-612.000000, -281.000000)">
            <g id="Page"></g>
            <g id="icn_scheduling" transform="translate(612.000000, 281.333333)">
                <circle id="Oval-Copy-8" fill="#E1F7F3" cx="15" cy="15" r="15"></circle>
                <g id="Group-17" transform="translate(7.000000, 7.666667)">
                    <polygon id="Stroke-1" stroke="#008C75" stroke-width="0.7" stroke-linecap="square" points="0.289745455 13.4344145 15.9208727 13.4344145 15.9208727 2.27746909 0.289745455 2.27746909"></polygon>
                    <line x1="3.10027636" y1="0.290443636" x2="3.10027636" y2="4.15255273" id="Stroke-3" stroke="#008C75" stroke-width="0.7" stroke-linecap="square"></line>
                    <line x1="13.1122036" y1="0.290443636" x2="13.1122036" y2="4.15255273" id="Stroke-4" stroke="#008C75" stroke-width="0.7" stroke-linecap="square"></line>
                    <path d="M6.30085818,6.24837818 C6.30085818,5.86321455 5.98784,5.55019636 5.60267636,5.55019636 C5.21751273,5.55019636 4.90565818,5.86321455 4.90565818,6.24837818 C4.90565818,6.63354182 5.21751273,6.94656 5.60267636,6.94656 C5.98784,6.94656 6.30085818,6.63354182 6.30085818,6.24837818" id="Fill-5" fill="#008C75"></path>
                    <path d="M8.80372364,6.24837818 C8.80372364,5.86321455 8.49186909,5.55019636 8.10554182,5.55019636 C7.72037818,5.55019636 7.40852364,5.86321455 7.40852364,6.24837818 C7.40852364,6.63354182 7.72037818,6.94656 8.10554182,6.94656 C8.49186909,6.94656 8.80372364,6.63354182 8.80372364,6.24837818" id="Fill-6" fill="#008C75"></path>
                    <path d="M11.3070545,6.24837818 C11.3070545,5.86321455 10.9940364,5.55019636 10.6088727,5.55019636 C10.2237091,5.55019636 9.91069091,5.86321455 9.91069091,6.24837818 C9.91069091,6.63354182 10.2237091,6.94656 10.6088727,6.94656 C10.9940364,6.94656 11.3070545,6.63354182 11.3070545,6.24837818" id="Fill-7" fill="#008C75"></path>
                    <path d="M13.80992,6.24837818 C13.80992,5.86321455 13.4969018,5.55019636 13.1117382,5.55019636 C12.7265745,5.55019636 12.41472,5.86321455 12.41472,6.24837818 C12.41472,6.63354182 12.7265745,6.94656 13.1117382,6.94656 C13.4969018,6.94656 13.80992,6.63354182 13.80992,6.24837818" id="Fill-8" fill="#008C75"></path>
                    <path d="M3.79799273,8.55400727 C3.79799273,8.16884364 3.48497455,7.85582545 3.09981091,7.85582545 C2.71464727,7.85582545 2.40279273,8.16884364 2.40279273,8.55400727 C2.40279273,8.93917091 2.71464727,9.25218909 3.09981091,9.25218909 C3.48497455,9.25218909 3.79799273,8.93917091 3.79799273,8.55400727" id="Fill-9" fill="#008C75"></path>
                    <path d="M6.30085818,8.55400727 C6.30085818,8.16884364 5.98784,7.85582545 5.60267636,7.85582545 C5.21751273,7.85582545 4.90565818,8.16884364 4.90565818,8.55400727 C4.90565818,8.93917091 5.21751273,9.25218909 5.60267636,9.25218909 C5.98784,9.25218909 6.30085818,8.93917091 6.30085818,8.55400727" id="Fill-10" fill="#008C75"></path>
                    <path d="M8.80372364,8.55400727 C8.80372364,8.16884364 8.49186909,7.85582545 8.10554182,7.85582545 C7.72037818,7.85582545 7.40852364,8.16884364 7.40852364,8.55400727 C7.40852364,8.93917091 7.72037818,9.25218909 8.10554182,9.25218909 C8.49186909,9.25218909 8.80372364,8.93917091 8.80372364,8.55400727" id="Fill-11" fill="#008C75"></path>
                    <path d="M11.3070545,8.55400727 C11.3070545,8.16884364 10.9940364,7.85582545 10.6088727,7.85582545 C10.2237091,7.85582545 9.91069091,8.16884364 9.91069091,8.55400727 C9.91069091,8.93917091 10.2237091,9.25218909 10.6088727,9.25218909 C10.9940364,9.25218909 11.3070545,8.93917091 11.3070545,8.55400727" id="Fill-12" fill="#008C75"></path>
                    <path d="M13.80992,8.55400727 C13.80992,8.16884364 13.4969018,7.85582545 13.1117382,7.85582545 C12.7265745,7.85582545 12.41472,8.16884364 12.41472,8.55400727 C12.41472,8.93917091 12.7265745,9.25218909 13.1117382,9.25218909 C13.4969018,9.25218909 13.80992,8.93917091 13.80992,8.55400727" id="Fill-13" fill="#008C75"></path>
                    <path d="M3.79799273,10.8597527 C3.79799273,10.4745891 3.48497455,10.1615709 3.09981091,10.1615709 C2.71464727,10.1615709 2.40279273,10.4745891 2.40279273,10.8597527 C2.40279273,11.2449164 2.71464727,11.5579345 3.09981091,11.5579345 C3.48497455,11.5579345 3.79799273,11.2449164 3.79799273,10.8597527" id="Fill-14" fill="#008C75"></path>
                    <path d="M6.30085818,10.8597527 C6.30085818,10.4745891 5.98784,10.1615709 5.60267636,10.1615709 C5.21751273,10.1615709 4.90565818,10.4745891 4.90565818,10.8597527 C4.90565818,11.2449164 5.21751273,11.5579345 5.60267636,11.5579345 C5.98784,11.5579345 6.30085818,11.2449164 6.30085818,10.8597527" id="Fill-15" fill="#008C75"></path>
                    <path d="M8.80372364,10.8597527 C8.80372364,10.4745891 8.49186909,10.1615709 8.10554182,10.1615709 C7.72037818,10.1615709 7.40852364,10.4745891 7.40852364,10.8597527 C7.40852364,11.2449164 7.72037818,11.5579345 8.10554182,11.5579345 C8.49186909,11.5579345 8.80372364,11.2449164 8.80372364,10.8597527" id="Fill-16" fill="#008C75"></path>
                </g>
            </g>
        </g>
    </g>
</svg>