<?xml version="1.0" encoding="UTF-8"?>
<svg width="30px" height="30px" viewBox="0 0 30 30" version="1.1" xmlns="http://www.w3.org/2000/svg" xmlns:xlink="http://www.w3.org/1999/xlink">
    <title>icn_python</title>
    <g id="Page-1" stroke="none" stroke-width="1" fill="none" fill-rule="evenodd">
        <g id="03_Megamenu_Developers" transform="translate(-1036.000000, -270.000000)">
            <g id="Page"></g>
            <g id="icn_python" transform="translate(1036.000000, 270.000000)">
                <circle id="Oval-Copy-21" fill="#E2EEF5" cx="15" cy="15" r="15"></circle>
                <g id="Group-5" transform="translate(7.000000, 7.000000)" stroke="#002DB4" stroke-linecap="square" stroke-width="0.7">
                    <path d="M8.3188,0.3332 C4.2348,0.3332 4.48946667,2.10386667 4.48946667,2.10386667 L4.4948,4.49053333 L8.39213333,4.49053333 L8.39213333,4.4892 L2.9468,4.4892 C2.9468,4.4892 0.333466667,4.19453333 0.333466667,8.31453333 C0.333466667,12.4345333 2.6148,12.2892 2.6148,12.2892 L3.97613333,12.2892 L3.97613333,10.3758667 C3.97613333,10.3758667 3.90146667,8.09586667 6.22013333,8.09586667 L10.0854667,8.09586667 C10.0854667,8.09586667 12.2574667,8.13186667 12.2574667,5.9972 L12.2574667,2.4692 C12.2574667,2.4692 12.5868,0.3332 8.3188,0.3332 Z" id="Stroke-1"></path>
                    <path d="M7.91773333,15.8734667 C12.0017333,15.8734667 11.7470667,14.1028 11.7470667,14.1028 L11.7417333,11.7254667 L7.8444,11.7254667 L7.8444,11.7174667 L13.2897333,11.7174667 C13.2897333,11.7174667 15.9030667,12.0121333 15.9030667,7.89346667 C15.9030667,3.77213333 13.6217333,3.91746667 13.6217333,3.91746667 L12.2604,3.91746667 L12.2604,5.8308 C12.2604,5.8308 12.3350667,8.1108 10.0164,8.1108 L6.15106667,8.1108 C6.15106667,8.1108 3.97906667,8.07613333 3.97906667,10.2094667 L3.97906667,13.7374667 C3.97906667,13.7374667 3.64973333,15.8734667 7.91773333,15.8734667 Z" id="Stroke-3"></path>
                </g>
            </g>
        </g>
    </g>
</svg>