<?xml version="1.0" encoding="UTF-8"?>
<svg width="30px" height="30px" viewBox="0 0 30 30" version="1.1" xmlns="http://www.w3.org/2000/svg" xmlns:xlink="http://www.w3.org/1999/xlink">
    <title>icn_java</title>
    <g id="Page-1" stroke="none" stroke-width="1" fill="none" fill-rule="evenodd">
        <g id="03_Megamenu_Developers" transform="translate(-1036.000000, -227.000000)">
            <g id="Page"></g>
            <g id="icn_java" transform="translate(1036.000000, 227.000000)">
                <circle id="Oval-Copy-20" fill="#E2EEF5" cx="15" cy="15" r="15"></circle>
                <g id="Group-11" transform="translate(9.000000, 6.000000)" stroke="#002DB4" stroke-width="0.7">
                    <path d="M6.19176923,0.221538462 C6.86215385,0.781153846 7.79330769,2.73923077 5.15446154,3.555 C2.70946154,4.30961538 1.16792308,6.46384615 4.476,7.99846154" id="Stroke-1"></path>
                    <path d="M9.80653846,3.7665 C6.92884615,4.51073077 6.16153846,5.67380769 7.12384615,6.62688462 C8.085,7.57880769 7.26692308,8.33803846 7.10884615,8.41419231" id="Stroke-3"></path>
                    <path d="M10.6471154,9.79142308 C10.6471154,10.2702692 8.32788462,10.6591154 5.4675,10.6591154 C2.60711538,10.6591154 0.287884615,10.2702692 0.287884615,9.79142308 C0.287884615,9.53180769 0.968653846,9.29873077 2.04865385,9.14065385" id="Stroke-5"></path>
                    <path d="M0.288461538,9.79142308 L2.51884615,15.4545 C2.51884615,15.9021923 3.80423077,16.2633462 5.39076923,16.2633462 C6.97615385,16.2633462 8.26269231,15.9021923 8.26269231,15.4545 L10.6476923,9.79142308" id="Stroke-7"></path>
                    <path d="M11.2043077,8.79196154 C13.6366154,7.26657692 16.1854615,10.7431154 10.902,12.3861923" id="Stroke-9"></path>
                </g>
            </g>
        </g>
    </g>
</svg>