<?xml version="1.0" encoding="UTF-8"?>
<svg width="30px" height="31px" viewBox="0 0 30 31" version="1.1" xmlns="http://www.w3.org/2000/svg" xmlns:xlink="http://www.w3.org/1999/xlink">
    <title>icn_opticalcharacterrecognition</title>
    <g id="Page-1" stroke="none" stroke-width="1" fill="none" fill-rule="evenodd">
        <g id="02_Megamenu_Solutions" transform="translate(-816.000000, -236.000000)">
            <g id="Page"></g>
            <g id="icn_opticalcharacterrecognition" transform="translate(816.000000, 236.666667)">
                <circle id="Oval-Copy-10" fill="#E1F7F3" cx="15" cy="15" r="15"></circle>
                <g id="Group-7" transform="translate(6.000000, 9.333333)" stroke="#008C75" stroke-width="0.7">
                    <path d="M5.54733,0.7808175 C4.211505,1.8189675 3.350655,3.4398675 3.350655,5.2630425 C3.350655,7.0859925 4.211505,8.7071175 5.54733,9.7450425 C6.632955,10.1392425 7.80273,10.3572675 9.024705,10.3572675 C10.24668,10.3572675 11.41668,10.1392425 12.50208,9.7450425 C13.838355,8.7071175 14.69898,7.0859925 14.69898,5.2630425 C14.69898,3.4398675 13.838355,1.8189675 12.50208,0.7808175 C11.41668,0.3868425 10.24668,0.1688175 9.024705,0.1688175 C7.80273,0.1688175 6.632955,0.3868425 5.54733,0.7808175 Z" id="Stroke-1"></path>
                    <path d="M9.024705,0.16875 C5.251905,0.16875 1.960155,2.21805 0.19503,5.262975 C1.960155,8.307675 5.251905,10.3572 9.024705,10.3572 C12.797505,10.3572 16.089255,8.307675 17.85438,5.262975 C16.089255,2.21805 12.797505,0.16875 9.024705,0.16875 Z" id="Stroke-3"></path>
                    <path d="M10.95984,5.26302 C10.95984,4.19427 10.093365,3.327795 9.024615,3.327795 C7.955865,3.327795 7.089615,4.19427 7.089615,5.26302 C7.089615,6.33177 7.955865,7.198245 9.024615,7.198245 C10.093365,7.198245 10.95984,6.33177 10.95984,5.26302 Z" id="Stroke-5"></path>
                </g>
            </g>
        </g>
    </g>
</svg>