<?xml version="1.0" encoding="UTF-8"?>
<svg width="30px" height="30px" viewBox="0 0 30 30" version="1.1" xmlns="http://www.w3.org/2000/svg" xmlns:xlink="http://www.w3.org/1999/xlink">
    <title>icn_expresssecurityreview</title>
    <g id="Page-1" stroke="none" stroke-width="1" fill="none" fill-rule="evenodd">
        <g id="01_Megamenu_Platform" transform="translate(-919.000000, -317.000000)">
            <g id="Page"></g>
            <g id="icn_expresssecurityreview" transform="translate(919.000000, 317.000000)">
                <circle id="Oval-Copy-7" fill="#E2EEF5" cx="15" cy="15" r="15"></circle>
                <g id="Group-4" transform="translate(6.000000, 6.000000)" stroke="#002DB4" stroke-width="0.7">
                    <polyline id="Stroke-1" points="5.88211579 9.15110526 8.50253684 11.6174211 12.3340105 5.88205263"></polyline>
                    <path d="M17.9114211,5.50193684 C18.3355263,6.56235789 16.6387895,8.04751579 16.6387895,9.10825263 C16.6387895,10.2747789 18.3355263,11.7596211 17.9114211,12.7142526 C17.487,13.7746737 15.1539474,13.5624632 14.4112105,14.4113053 C13.6687895,15.1534105 13.881,17.4870947 12.7141579,17.9115158 C11.6537368,18.3356211 10.1685789,16.6385684 9.10815789,16.6385684 C7.94163158,16.6385684 6.45678947,18.3356211 5.50184211,17.9115158 C4.44142105,17.4870947 4.65363158,15.1534105 3.80510526,14.4113053 C3.06268421,13.6688842 0.729315789,13.7746737 0.304894737,12.7142526 C-0.119526316,11.6535158 1.57752632,10.1686737 1.57752632,9.10825263 C1.57752632,7.94172632 -0.119526316,6.45656842 0.304894737,5.50193684 C0.729315789,4.44151579 3.06268421,4.65341053 3.80510526,3.80488421 C4.54752632,3.06246316 4.33531579,0.729410526 5.50184211,0.304989474 C6.56257895,-0.119431579 8.04773684,1.57762105 9.10815789,1.57762105 C10.2746842,1.57762105 11.7598421,-0.119431579 12.7141579,0.304989474 C13.7748947,0.729410526 13.5626842,3.06246316 14.4112105,3.80488421 C15.1539474,4.54762105 17.487,4.44151579 17.9114211,5.50193684 Z" id="Stroke-2"></path>
                </g>
            </g>
        </g>
    </g>
</svg>