<?xml version="1.0" encoding="UTF-8"?>
<svg width="30px" height="31px" viewBox="0 0 30 31" version="1.1" xmlns="http://www.w3.org/2000/svg" xmlns:xlink="http://www.w3.org/1999/xlink">
    <title>icn_scheduler</title>
    <g id="Page-1" stroke="none" stroke-width="1" fill="none" fill-rule="evenodd">
        <g id="01_Megamenu_Platform" transform="translate(-919.000000, -226.000000)">
            <g id="Page"></g>
            <g id="icn_scheduler" transform="translate(919.000000, 226.666667)">
                <circle id="Oval-Copy-5" fill="#E2EEF5" cx="15" cy="15" r="15"></circle>
                <g id="Group-31" transform="translate(6.000000, 7.333333)">
                    <polyline id="Stroke-1" stroke="#002DB4" stroke-width="0.7" points="10.8134036 14.1317679 0.240975 14.1317679 0.240975 2.13701786 17.0468679 2.13701786 17.0468679 10.0457679"></polyline>
                    <line x1="3.26169643" y1="6.42857143e-05" x2="3.26169643" y2="4.15195714" id="Stroke-3" stroke="#002DB4" stroke-width="0.7"></line>
                    <line x1="14.026275" y1="6.42857143e-05" x2="14.026275" y2="4.15195714" id="Stroke-6" stroke="#002DB4" stroke-width="0.7"></line>
                    <path d="M6.70310357,6.40555714 C6.70310357,5.99123571 6.36721071,5.65534286 5.95288929,5.65534286 C5.53824643,5.65534286 5.202675,5.99123571 5.202675,6.40555714 C5.202675,6.8202 5.53824643,7.15577143 5.95288929,7.15577143 C6.36721071,7.15577143 6.70310357,6.8202 6.70310357,6.40555714" id="Fill-9" fill="#002DB4"></path>
                    <path d="M9.39426429,6.40555714 C9.39426429,5.99123571 9.05837143,5.65534286 8.64405,5.65534286 C8.22940714,5.65534286 7.89383571,5.99123571 7.89383571,6.40555714 C7.89383571,6.8202 8.22940714,7.15577143 8.64405,7.15577143 C9.05837143,7.15577143 9.39426429,6.8202 9.39426429,6.40555714" id="Fill-11" fill="#002DB4"></path>
                    <path d="M12.0852964,6.40555714 C12.0852964,5.99123571 11.7494036,5.65534286 11.3350821,5.65534286 C10.9207607,5.65534286 10.5848679,5.99123571 10.5848679,6.40555714 C10.5848679,6.8202 10.9207607,7.15577143 11.3350821,7.15577143 C11.7494036,7.15577143 12.0852964,6.8202 12.0852964,6.40555714" id="Fill-13" fill="#002DB4"></path>
                    <path d="M14.7764893,6.40555714 C14.7764893,5.99123571 14.4405964,5.65534286 14.026275,5.65534286 C13.6116321,5.65534286 13.2760607,5.99123571 13.2760607,6.40555714 C13.2760607,6.8202 13.6116321,7.15577143 14.026275,7.15577143 C14.4405964,7.15577143 14.7764893,6.8202 14.7764893,6.40555714" id="Fill-15" fill="#002DB4"></path>
                    <path d="M4.01191071,8.88470357 C4.01191071,8.47038214 3.67601786,8.13448929 3.26169643,8.13448929 C2.84705357,8.13448929 2.51148214,8.47038214 2.51148214,8.88470357 C2.51148214,9.299025 2.84705357,9.63491786 3.26169643,9.63491786 C3.67601786,9.63491786 4.01191071,9.299025 4.01191071,8.88470357" id="Fill-17" fill="#002DB4"></path>
                    <path d="M6.70310357,8.88470357 C6.70310357,8.47038214 6.36721071,8.13448929 5.95288929,8.13448929 C5.53824643,8.13448929 5.202675,8.47038214 5.202675,8.88470357 C5.202675,9.299025 5.53824643,9.63491786 5.95288929,9.63491786 C6.36721071,9.63491786 6.70310357,9.299025 6.70310357,8.88470357" id="Fill-19" fill="#002DB4"></path>
                    <path d="M9.39426429,8.88470357 C9.39426429,8.47038214 9.05837143,8.13448929 8.64405,8.13448929 C8.22940714,8.13448929 7.89383571,8.47038214 7.89383571,8.88470357 C7.89383571,9.299025 8.22940714,9.63491786 8.64405,9.63491786 C9.05837143,9.63491786 9.39426429,9.299025 9.39426429,8.88470357" id="Fill-21" fill="#002DB4"></path>
                    <path d="M4.01191071,11.3636893 C4.01191071,10.9493679 3.67601786,10.613475 3.26169643,10.613475 C2.84705357,10.613475 2.51148214,10.9493679 2.51148214,11.3636893 C2.51148214,11.7783321 2.84705357,12.1139036 3.26169643,12.1139036 C3.67601786,12.1139036 4.01191071,11.7783321 4.01191071,11.3636893" id="Fill-23" fill="#002DB4"></path>
                    <path d="M6.70310357,11.3636893 C6.70310357,10.9493679 6.36721071,10.613475 5.95288929,10.613475 C5.53824643,10.613475 5.202675,10.9493679 5.202675,11.3636893 C5.202675,11.7783321 5.53824643,12.1139036 5.95288929,12.1139036 C6.36721071,12.1139036 6.70310357,11.7783321 6.70310357,11.3636893" id="Fill-25" fill="#002DB4"></path>
                    <path d="M17.766,12.250575 C17.766,10.185075 16.0916786,8.51075357 14.0261786,8.51075357 C11.9606786,8.51075357 10.2863571,10.185075 10.2863571,12.250575 C10.2863571,14.3157536 11.9606786,15.9903964 14.0261786,15.9903964 C16.0916786,15.9903964 17.766,14.3157536 17.766,12.250575 Z" id="Stroke-27" stroke="#002DB4" stroke-width="0.7"></path>
                    <polyline id="Stroke-29" stroke="#002DB4" stroke-width="0.7" points="14.026275 10.2044571 14.026275 12.2506714 15.558525 13.8957429"></polyline>
                </g>
            </g>
        </g>
    </g>
</svg>