<?xml version="1.0" encoding="UTF-8"?>
<svg width="52px" height="52px" viewBox="0 0 52 52" version="1.1" xmlns="http://www.w3.org/2000/svg" xmlns:xlink="http://www.w3.org/1999/xlink">
    <title>Icn_UserExperience</title>
    <g id="Top-Nav-Desktop---Redesign-4/8/21" stroke="none" stroke-width="1" fill="none" fill-rule="evenodd">
        <g id="01_Megamenu_Platform" transform="translate(-477.000000, -185.000000)">
            <g id="Page"></g>
            <g id="Icn_UserExperience" transform="translate(478.000000, 186.000000)">
                <rect id="Rectangle-Copy-5" stroke="#E5E5E5" fill="#F2F2F2" x="0" y="0" width="50" height="50" rx="5"></rect>
                <g id="Group-11" transform="translate(4.545455, 5.681818)">
                    <path d="M31.6553808,21.0755814 L1.30001216,21.0755814 C0.584751231,21.0755814 0,20.4892989 0,19.7730146 L0,1.30256677 C0,0.586282501 0.584751231,0 1.30001216,0 L31.6553808,0 C32.3706417,0 32.9545455,0.586282501 32.9545455,1.30256677 L32.9545455,19.7730146 C32.9545455,20.4892989 32.3706417,21.0755814 31.6553808,21.0755814 Z" id="Stroke-1-Copy" stroke="#000000" stroke-width="0.7"></path>
                    <path d="M40.7462899,39.2573996 L10.3909212,39.2573996 C9.67566032,39.2573996 9.09090909,38.6711171 9.09090909,37.9548328 L9.09090909,19.484385 C9.09090909,18.7681007 9.67566032,18.1818182 10.3909212,18.1818182 L40.7462899,18.1818182 C41.4615508,18.1818182 42.0454545,18.7681007 42.0454545,19.484385 L42.0454545,37.9548328 C42.0454545,38.6711171 41.4615508,39.2573996 40.7462899,39.2573996 Z" id="Stroke-1-Copy-2" stroke="#000000" stroke-width="0.7"></path>
                    <path d="M36.2008353,30.1664905 L5.8454667,30.1664905 C5.13020578,30.1664905 4.54545455,29.580208 4.54545455,28.8639237 L4.54545455,10.3934759 C4.54545455,9.67719159 5.13020578,9.09090909 5.8454667,9.09090909 L36.2008353,9.09090909 C36.9160962,9.09090909 37.5,9.67719159 37.5,10.3934759 L37.5,28.8639237 C37.5,29.580208 36.9160962,30.1664905 36.2008353,30.1664905 Z" id="Stroke-1" stroke="#000000" stroke-width="0.7" fill="#00E5BF"></path>
                    <path d="M36.2008353,13.6363636 L5.8454667,13.6363636 C5.13020578,13.6363636 4.54545455,13.5099178 4.54545455,13.3554339 L4.54545455,9.37183885 C4.54545455,9.21735497 5.13020578,9.09090909 5.8454667,9.09090909 L36.2008353,9.09090909 C36.9160962,9.09090909 37.5,9.21735497 37.5,9.37183885 L37.5,13.3554339 C37.5,13.5099178 36.9160962,13.6363636 36.2008353,13.6363636 Z" id="Stroke-1" fill="#F2F2F2"></path>
                    <path d="M36.2008353,30.1664905 L5.8454667,30.1664905 C5.13020578,30.1664905 4.54545455,29.580208 4.54545455,28.8639237 L4.54545455,10.3934759 C4.54545455,9.67719159 5.13020578,9.09090909 5.8454667,9.09090909 L36.2008353,9.09090909 C36.9160962,9.09090909 37.5,9.67719159 37.5,10.3934759 L37.5,28.8639237 C37.5,29.580208 36.9160962,30.1664905 36.2008353,30.1664905 Z" id="Stroke-1" stroke="#000000" stroke-width="0.7"></path>
                    <line x1="4.54545455" y1="13.3060254" x2="37.5" y2="13.3060254" id="Stroke-3" stroke="#000000" stroke-width="0.7"></line>
                    <path d="M9.91014799,11.1984672 C9.91014799,11.5159695 9.65306571,11.7732558 9.33581523,11.7732558 C9.01765311,11.7732558 8.76057082,11.5159695 8.76057082,11.1984672 C8.76057082,10.880965 9.01765311,10.6236786 9.33581523,10.6236786 C9.65306571,10.6236786 9.91014799,10.880965 9.91014799,11.1984672" id="Fill-5" fill="#000000"></path>
                    <path d="M12.2093023,11.1984672 C12.2093023,11.5159695 11.95222,11.7732558 11.6340579,11.7732558 C11.3168074,11.7732558 11.0597252,11.5159695 11.0597252,11.1984672 C11.0597252,10.880965 11.3168074,10.6236786 11.6340579,10.6236786 C11.95222,10.6236786 12.2093023,10.880965 12.2093023,11.1984672" id="Fill-7" fill="#000000"></path>
                    <path d="M7.61099366,11.1984672 C7.61099366,11.5159695 7.35320417,11.7732558 7.03620507,11.7732558 C6.71920598,11.7732558 6.46141649,11.5159695 6.46141649,11.1984672 C6.46141649,10.880965 6.71920598,10.6236786 7.03620507,10.6236786 C7.35320417,10.6236786 7.61099366,10.880965 7.61099366,11.1984672" id="Fill-9" fill="#000000"></path>
                </g>
            </g>
        </g>
    </g>
</svg>