<?xml version="1.0" encoding="UTF-8"?>
<svg width="30px" height="30px" viewBox="0 0 30 30" version="1.1" xmlns="http://www.w3.org/2000/svg" xmlns:xlink="http://www.w3.org/1999/xlink">
    <title>icn_neuralapi</title>
    <g id="Page-1" stroke="none" stroke-width="1" fill="none" fill-rule="evenodd">
        <g id="01_Megamenu_Platform" transform="translate(-748.000000, -317.000000)">
            <g id="Page"></g>
            <g id="icn_neuralapi" transform="translate(748.000000, 317.000000)">
                <circle id="Oval-Copy-3" fill="#E2EEF5" cx="15" cy="15" r="15"></circle>
                <g id="Group-25" transform="translate(7.000000, 6.000000)" stroke="#002DB4" stroke-width="0.7">
                    <path d="M4.09148775,1.37237625 C4.37009775,-0.14804625 7.01189775,-0.01928625 7.59464775,0.84457125 L7.59464775,14.7309488 C7.59464775,16.6728938 4.81493025,18.3145838 3.02366775,15.5273738 C-0.46311975,15.0703313 0.04997775,10.1660738 0.85583775,9.49507875" id="Stroke-1"></path>
                    <path d="M2.80533075,3.79861425 C1.95784575,1.58943675 4.83330075,0.52661175 5.53260075,2.48215425" id="Stroke-3"></path>
                    <path d="M4.97682375,6.053163 C5.53265625,2.841933 0.04981125,2.872458 1.05019875,6.4130805 C-0.97777125,8.2562355 1.14094125,10.277823 2.35139625,10.161273" id="Stroke-5"></path>
                    <path d="M2.47255275,6.83851575 C3.03282525,8.19854325 4.75776525,8.84289825 6.03981525,7.56834075" id="Stroke-7"></path>
                    <path d="M4.999329,10.7347545 C5.355639,9.9016995 5.2088415,8.9432145 4.620819,8.324667" id="Stroke-9"></path>
                    <path d="M4.9825125,14.627358 C5.0690925,13.1591055 3.79509,11.8293255 2.086245,12.420123" id="Stroke-11"></path>
                    <path d="M11.0837107,1.37237625 C10.8051008,-0.14804625 8.16302325,-0.01928625 7.58055075,0.84457125 L7.58055075,14.7309488 C7.58055075,16.6728938 10.3602683,18.3145838 12.1515308,15.5273738 C15.6383183,15.0703313 15.1252208,10.1660738 14.3190833,9.49507875" id="Stroke-13"></path>
                    <path d="M12.3698677,3.79861425 C13.2173527,1.58943675 10.3418977,0.52661175 9.64259775,2.48215425" id="Stroke-15"></path>
                    <path d="M10.1980973,6.053163 C9.64254225,2.841933 15.1253873,2.872458 14.1249998,6.4130805 C16.1526923,8.2562355 14.0342573,10.277823 12.8238023,10.161273" id="Stroke-17"></path>
                    <path d="M12.7026457,6.83851575 C12.1423732,8.19854325 10.4174333,8.84289825 9.13538325,7.56834075" id="Stroke-19"></path>
                    <path d="M10.1758972,10.7347545 C9.81958725,9.9016995 9.96638475,8.9432145 10.5544072,8.324667" id="Stroke-21"></path>
                    <path d="M10.192686,14.627358 C10.106106,13.1591055 11.3801085,11.8293255 13.088676,12.420123" id="Stroke-23"></path>
                </g>
            </g>
        </g>
    </g>
</svg>