<?xml version="1.0" encoding="UTF-8"?>
<svg width="30px" height="30px" viewBox="0 0 30 30" version="1.1" xmlns="http://www.w3.org/2000/svg" xmlns:xlink="http://www.w3.org/1999/xlink">
    <title>icn_sentimentanalysis</title>
    <g id="Page-1" stroke="none" stroke-width="1" fill="none" fill-rule="evenodd">
        <g id="02_Megamenu_Solutions" transform="translate(-816.000000, -191.000000)">
            <g id="Page"></g>
            <g id="icn_sentimentanalysis" transform="translate(816.000000, 191.000000)">
                <circle id="Oval-Copy-9" fill="#E1F7F3" cx="15" cy="15" r="15"></circle>
                <g id="Group-9" transform="translate(7.000000, 7.000000)">
                    <path d="M15.8171175,8.00391111 C15.8171175,3.68873651 12.3189587,0.19032381 8.00378413,0.19032381 C3.68860952,0.19032381 0.190450794,3.68873651 0.190450794,8.00391111 C0.190450794,12.3188317 3.68860952,15.8172444 8.00378413,15.8172444 C12.3189587,15.8172444 15.8171175,12.3188317 15.8171175,8.00391111 Z" id="Stroke-1" stroke="#008C75" stroke-width="0.7"></path>
                    <path d="M4.08284444,9.72538413 C4.59509841,11.4155429 6.14633651,12.6538921 8.00360635,12.6538921 C9.86113016,12.6538921 11.4126222,11.4155429 11.9246222,9.72538413" id="Stroke-3" stroke="#008C75" stroke-width="0.7"></path>
                    <path d="M5.33396825,6.12096508 C5.33396825,5.76058413 5.04165079,5.46852063 4.68126984,5.46852063 C4.32063492,5.46852063 4.02857143,5.76058413 4.02857143,6.12096508 C4.02857143,6.4816 4.32063492,6.77366349 4.68126984,6.77366349 C5.04165079,6.77366349 5.33396825,6.4816 5.33396825,6.12096508" id="Fill-5" fill="#008C75"></path>
                    <path d="M11.979073,6.12096508 C11.979073,5.76058413 11.6870095,5.46852063 11.3263746,5.46852063 C10.9659937,5.46852063 10.6736762,5.76058413 10.6736762,6.12096508 C10.6736762,6.4816 10.9659937,6.77366349 11.3263746,6.77366349 C11.6870095,6.77366349 11.979073,6.4816 11.979073,6.12096508" id="Fill-7" fill="#008C75"></path>
                </g>
            </g>
        </g>
    </g>
</svg>