<?xml version="1.0" encoding="UTF-8"?>
<svg width="30px" height="30px" viewBox="0 0 30 30" version="1.1" xmlns="http://www.w3.org/2000/svg" xmlns:xlink="http://www.w3.org/1999/xlink">
    <title>icn_recruiting</title>
    <g id="Page-1" stroke="none" stroke-width="1" fill="none" fill-rule="evenodd">
        <g id="02_Megamenu_Solutions" transform="translate(-337.000000, -191.000000)">
            <g id="Page"></g>
            <g id="icn_recruiting" transform="translate(337.000000, 191.000000)">
                <circle id="Oval-Copy-3" fill="#E2EEF5" cx="15" cy="15" r="15"></circle>
                <g id="Group-9-Copy" transform="translate(8.000000, 8.000000)" stroke="#002DB4" stroke-width="0.7">
                    <path d="M11.5039954,5.82909943 C11.5039954,2.69504229 8.96321829,0.154265143 5.82916114,0.154265143 C2.695104,0.154265143 0.154326857,2.69504229 0.154326857,5.82909943 C0.154326857,8.96315657 2.695104,11.5039337 5.82916114,11.5039337 C8.96321829,11.5039337 11.5039954,8.96315657 11.5039954,5.82909943 Z" id="Stroke-1"></path>
                    <line x1="14.2481006" y1="14.2481211" x2="9.88942629" y2="9.88944686" id="Stroke-3"></line>
                    <path d="M7.36187657,4.21132114 C7.36187657,3.36501257 6.67561371,2.67874971 5.82909943,2.67874971 C4.98258514,2.67874971 4.29632229,3.36501257 4.29632229,4.21132114 C4.29632229,5.05783543 4.98258514,5.74409829 5.82909943,5.74409829 C6.67561371,5.74409829 7.36187657,5.05783543 7.36187657,4.21132114 Z" id="Stroke-5"></path>
                    <path d="M8.67301714,8.64362057 L2.96814857,8.64362057 L2.96814857,7.22830629 C2.96814857,6.44988343 3.60504,5.812992 4.38346286,5.812992 L7.25770286,5.812992 C8.03612571,5.812992 8.67301714,6.44988343 8.67301714,7.22830629 L8.67301714,8.64362057 Z" id="Stroke-7"></path>
                </g>
            </g>
        </g>
    </g>
</svg>