<?xml version="1.0" encoding="UTF-8"?>
<svg width="30px" height="31px" viewBox="0 0 30 31" version="1.1" xmlns="http://www.w3.org/2000/svg" xmlns:xlink="http://www.w3.org/1999/xlink">
    <title>icn_shippinglogistics</title>
    <g id="Page-1" stroke="none" stroke-width="1" fill="none" fill-rule="evenodd">
        <g id="02_Megamenu_Solutions" transform="translate(-337.000000, -281.000000)">
            <g id="Page"></g>
            <g id="icn_shippinglogistics" transform="translate(337.000000, 281.333333)">
                <circle id="Oval-Copy-5" fill="#E2EEF5" cx="15" cy="15" r="15"></circle>
                <g id="Group-11" transform="translate(6.000000, 8.666667)" stroke="#002DB4" stroke-width="0.7">
                    <path d="M4.01034375,12.2648625 C3.10490625,12.2648625 2.36840625,11.528175 2.36840625,10.6227375 C2.36840625,9.7174875 3.10490625,8.9808 4.01034375,8.9808 C4.91578125,8.9808 5.65228125,9.7174875 5.65228125,10.6227375 C5.65228125,11.528175 4.91578125,12.2648625 4.01034375,12.2648625 Z" id="Stroke-1"></path>
                    <path d="M14.2649813,12.2648625 C13.3595438,12.2648625 12.6230438,11.528175 12.6230438,10.6227375 C12.6230438,9.7174875 13.3595438,8.9808 14.2649813,8.9808 C15.1704187,8.9808 15.9069188,9.7174875 15.9069188,10.6227375 C15.9069188,11.528175 15.1704187,12.2648625 14.2649813,12.2648625 Z" id="Stroke-3"></path>
                    <polyline id="Stroke-5" points="2.41348125 10.2419062 0.14060625 10.2419062 0.14060625 0.14071875 11.8199812 0.14071875 11.8199812 10.2419062"></polyline>
                    <polyline id="Stroke-7" points="12.6681187 10.2419062 11.8200562 10.2419062 5.60724375 10.2419062"></polyline>
                    <path d="M11.7990938,3.51571875 L11.8305938,3.51571875 L15.1002188,3.52134375 L15.1090313,3.53821875 L16.4481563,6.07528125 C16.4974688,6.16884375 16.5938438,6.22696875 16.6994063,6.22696875 L17.5257188,6.22696875 C17.7420938,6.22696875 17.9179688,6.40265625 17.9179688,6.61903125 L17.9179688,9.84984375 C17.9179688,10.0662187 17.7420938,10.2419062 17.5257188,10.2419062 L16.6024688,10.2419062 L15.8620313,10.2419062" id="Stroke-9"></path>
                </g>
            </g>
        </g>
    </g>
</svg>