<?xml version="1.0" encoding="UTF-8"?>
<svg width="144px" height="50px" viewBox="0 0 144 50" version="1.1" xmlns="http://www.w3.org/2000/svg" xmlns:xlink="http://www.w3.org/1999/xlink">
    <title>nylas_logo</title>
    <defs>
        <polygon id="path-1" points="0 0.252777778 47.3420833 0.252777778 47.3420833 49.3051389 0 49.3051389"></polygon>
    </defs>
    <g id="Top-Nav-Desktop" stroke="none" stroke-width="1" fill="none" fill-rule="evenodd">
        <g id="Sticky-Nav" transform="translate(-105.000000, -25.000000)">
            <g id="nylas_logo" transform="translate(105.000000, 25.000000)">
                <g id="Group-3" transform="translate(0.000000, 0.441806)">
                    <mask id="mask-2" fill="white">
                        <use xlink:href="#path-1"></use>
                    </mask>
                    <g id="Clip-2"></g>
                    <path d="M-0.000277777778,25.5016667 L21.9802778,39.2058333 L21.9802778,49.3051389 L-0.000277777778,35.6009722 L-0.000277777778,25.5016667 Z M25.3615278,0.252361111 L47.3420833,13.9565278 L47.3420833,24.0565278 L25.3615278,10.3523611 L25.3615278,0.252361111 Z M25.3615278,13.92875 L47.3420833,27.6336111 L47.3420833,37.7329167 L25.3615278,24.02875 L25.3615278,13.92875 Z M41.7129167,47.585 L25.3615278,37.4954167 L25.3615278,27.3954167 L47.3420833,41.0995833 L47.3420833,44.4440278 C47.3420833,46.4822222 45.69,48.135 43.6511111,48.135 C42.9670833,48.135 42.2955556,47.9440278 41.7129167,47.585 L41.7129167,47.585 Z M5.45319444,1.44263889 L21.9802778,11.6419444 L21.9802778,21.74125 L-0.000277777778,8.03708333 L-0.000277777778,4.48569444 C-0.000277777778,2.51138889 1.60111111,0.910694444 3.57541667,0.910694444 C4.23861111,0.910694444 4.88861111,1.09472222 5.45319444,1.44263889 L5.45319444,1.44263889 Z M-0.000277777778,11.8252778 L21.9802778,25.5294444 L21.9802778,35.62875 L-0.000277777778,21.9245833 L-0.000277777778,11.8252778 Z" id="Fill-1" fill="#00E4BF" mask="url(#mask-2)"></path>
                </g>
                <path d="M66.4683333,14.4573611 L69.5836111,14.4573611 L78.1704167,29.38375 L80.7426389,34.3108333 L80.8877778,34.3108333 C80.7426389,31.9198611 80.5252778,29.2386111 80.5252778,26.7393056 L80.5252778,14.4573611 L83.3870833,14.4573611 L83.3870833,38.2233333 L80.2718056,38.2233333 L71.6495833,23.2608333 L69.0773611,18.3698611 L68.9322222,18.3698611 C69.1134722,20.7608333 69.3308333,23.2969444 69.3308333,25.7969444 L69.3308333,38.2233333 L66.4683333,38.2233333 L66.4683333,14.4573611 Z" id="Fill-4" fill="#000000"></path>
                <path d="M87.4115278,45.4327083 L87.9913889,43.0778472 C88.3531944,43.186875 88.8969444,43.3320139 89.3323611,43.3320139 C91.3247222,43.3320139 92.5920833,41.7375694 93.3170833,39.5639583 L93.7156944,38.2597917 L86.6504167,20.6160417 L89.7302778,20.6160417 L93.3170833,30.361875 C93.8601389,31.8834028 94.4761111,33.6952083 95.0198611,35.3250694 L95.1643056,35.3250694 C95.6719444,33.730625 96.1788889,31.9195139 96.6504167,30.361875 L99.8018056,20.6160417 L102.700417,20.6160417 L96.0705556,39.6729861 C94.8386111,43.1507639 93.0275,45.7945139 89.4768056,45.7945139 C88.6795833,45.7945139 87.9913889,45.6500694 87.4115278,45.4327083" id="Fill-6" fill="#000000"></path>
                <path d="M105.745833,34.6729167 L105.745833,14.4576389 L108.715972,14.4576389 L108.715972,34.8902778 C108.715972,35.8319444 109.115278,36.1944444 109.55,36.1944444 C109.730556,36.1944444 109.875694,36.1944444 110.202083,36.1222222 L110.6,38.3680556 C110.202083,38.55 109.695139,38.6583333 108.897917,38.6583333 C106.651389,38.6583333 105.745833,37.2451389 105.745833,34.6729167" id="Fill-8" fill="#000000"></path>
                <path d="M123.897014,33.9122917 L123.897014,29.0213194 C118.028264,29.745625 115.999097,31.1949306 115.999097,33.4414583 C115.999097,35.4338194 117.375486,36.2671528 119.115069,36.2671528 C120.817847,36.2671528 122.194931,35.4338194 123.897014,33.9122917 M113.101181,33.6588194 C113.101181,29.8178472 116.397708,27.8984028 123.897014,27.0650694 C123.897014,24.8185417 123.172708,22.6449306 120.274097,22.6449306 C118.245625,22.6449306 116.397708,23.5865972 115.021319,24.5289583 L113.862292,22.4636806 C115.492153,21.4129861 117.955347,20.1817361 120.781736,20.1817361 C125.092847,20.1817361 126.903958,23.0435417 126.903958,27.4275694 L126.903958,38.2234028 L124.440764,38.2234028 L124.187292,36.1220139 L124.078958,36.1220139 C122.411597,37.4990972 120.455347,38.658125 118.245625,38.658125 C115.310903,38.658125 113.101181,36.8102083 113.101181,33.6588194" id="Fill-10" fill="#000000"></path>
                <path d="M129.370486,36.2309722 L130.855903,34.2379167 C132.377431,35.4698611 133.935069,36.3393056 136.037153,36.3393056 C138.355208,36.3393056 139.514236,35.1073611 139.514236,33.5858333 C139.514236,31.7747222 137.413542,30.9775 135.492708,30.2531944 C132.993403,29.3469444 130.348264,28.1518056 130.348264,25.1809722 C130.348264,22.3552778 132.595486,20.1816667 136.435069,20.1816667 C138.609375,20.1816667 140.528819,21.0872222 141.905903,22.1740278 L140.456597,24.0580556 C139.260764,23.1525 137.992708,22.5004167 136.435069,22.5004167 C134.225347,22.5004167 133.210764,23.6955556 133.210764,25.0358333 C133.210764,26.7025 135.022569,27.3184722 137.014931,28.0795833 C139.551042,29.02125 142.376736,30.0719444 142.376736,33.4052778 C142.376736,36.2670833 140.094097,38.6580556 135.927431,38.6580556 C133.428125,38.6580556 131.036458,37.6073611 129.370486,36.2309722" id="Fill-12" fill="#000000"></path>
            </g>
            <g id="Page"></g>
        </g>
    </g>
</svg>