<?xml version="1.0" encoding="UTF-8"?>
<svg width="70px" height="85px" viewBox="0 0 70 85" version="1.1" xmlns="http://www.w3.org/2000/svg" xmlns:xlink="http://www.w3.org/1999/xlink">
    <title>Group 15</title>
    <g id="Symbols" stroke="none" stroke-width="1" fill="none" fill-rule="evenodd">
        <g id="Footer" transform="translate(-96.000000, -58.000000)">
            <g id="Group-15" transform="translate(96.000000, 58.000000)">
                <path d="M-1.69902913e-05,55.026042 L2.97838107,55.026042 L11.1862209,69.302472 L13.6452257,74.015382 L13.7836966,74.015382 C13.6452257,71.728372 13.4374345,69.164092 13.4374345,66.773212 L13.4374345,55.026042 L16.1732112,55.026042 L16.1732112,77.757762 L13.194983,77.757762 L4.95248301,63.446312 L2.49347816,58.768422 L2.35517718,58.768422 C2.52813835,61.055432 2.73609951,63.480992 2.73609951,65.872212 L2.73609951,77.757762 L-1.69902913e-05,77.757762 L-1.69902913e-05,55.026042 Z" id="Fill-1" fill="#FFFFFF"></path>
                <path d="M19.2561675,84.653353 L19.8103908,82.401023 C20.1566529,82.505063 20.676216,82.643613 21.0916286,82.643613 C22.9964102,82.643613 24.2084976,81.119053 24.9010218,79.039783 L25.2821141,77.792493 L18.528983,60.916933 L21.4727209,60.916933 L24.9010218,70.238203 C25.4207549,71.693743 26.0092985,73.426383 26.5290316,74.985623 L26.6675024,74.985623 C27.1522354,73.461063 27.6373083,71.728423 28.0873811,70.238203 L31.1002694,60.916933 L33.8708762,60.916933 L27.5331578,79.143823 C26.3557306,82.470383 24.62425,84.999983 21.2302694,84.999983 C20.468085,84.999983 19.8103908,84.861263 19.2561675,84.653353" id="Fill-4" fill="#FFFFFF"></path>
                <path d="M36.1572767,74.361723 L36.1572767,55.024223 L38.9968641,55.024223 L38.9968641,74.569973 C38.9968641,75.470463 39.3779563,75.817263 39.7937087,75.817263 C39.9668398,75.817263 40.1051408,75.817263 40.4167427,75.747733 L40.797835,77.896533 C40.4167427,78.069763 39.9321796,78.173463 39.170165,78.173463 C37.0231019,78.173463 36.1572767,76.822133 36.1572767,74.361723" id="Fill-6" fill="#FFFFFF"></path>
                <path d="M52.676682,73.634242 L52.676682,68.956182 C47.066318,69.649102 45.1270461,71.035112 45.1270461,73.183572 C45.1270461,75.089782 46.4431141,75.886572 48.1054442,75.886572 C49.7331141,75.886572 51.0490121,75.089782 52.676682,73.634242 M42.3566092,73.391652 C42.3566092,69.718462 45.5079684,67.881952 52.676682,67.084822 C52.676682,64.936362 51.9841578,62.857432 49.213551,62.857432 C47.2742791,62.857432 45.5079684,63.758092 44.1920704,64.659262 L43.0836238,62.684032 C44.6419733,61.679332 46.9971675,60.500892 49.6984539,60.500892 C53.8196189,60.500892 55.5512694,63.238572 55.5512694,67.431452 L55.5512694,77.757762 L53.1962451,77.757762 L52.9537937,75.747852 L52.8501529,75.747852 C51.2568034,77.064502 49.386682,78.173412 47.2742791,78.173412 C44.4690121,78.173412 42.3566092,76.406432 42.3566092,73.391652" id="Fill-8" fill="#FFFFFF"></path>
                <path d="M57.5262209,75.851875 L58.9457597,73.946005 C60.4004684,75.124445 61.8898374,75.955575 63.8982597,75.955575 C66.1148131,75.955575 67.2229199,74.777815 67.2229199,73.322275 C67.2229199,71.589635 65.2144976,70.827355 63.3786966,70.134435 C60.9893519,69.267945 58.4611966,68.124525 58.4611966,65.282975 C58.4611966,62.580315 60.6082597,60.500875 64.2793519,60.500875 C66.3574345,60.500875 68.1927257,61.367365 69.5086238,62.406745 L68.1234053,64.208915 C66.9806383,63.342595 65.7687209,62.718695 64.2793519,62.718695 C62.1667791,62.718695 61.1969733,63.862285 61.1969733,65.144595 C61.1969733,66.738515 62.9287937,67.327565 64.8334053,68.055165 C67.2575801,68.956165 69.9592063,69.961035 69.9592063,73.149215 C69.9592063,75.886555 67.7771432,78.173395 63.7946189,78.173395 C61.4051044,78.173395 59.1192306,77.168525 57.5262209,75.851875" id="Fill-10" fill="#FFFFFF"></path>
                <g id="Group-14" transform="translate(11.213592, 0.000000)" fill="#00E5BF">
                    <path d="M0.0540800971,24.153192 L21.0683519,37.262402 L21.0683519,46.923842 L0.0540800971,33.814462 L0.0540800971,24.153192 Z M24.3012646,-6.8e-05 L45.3155364,13.109312 L45.3155364,22.770582 L24.3012646,9.661202 L24.3012646,-6.8e-05 Z M24.3012646,13.082962 L45.3155364,26.192342 L45.3155364,35.853612 L24.3012646,22.744232 L24.3012646,13.082962 Z M39.9338617,45.277732 L24.3012646,35.625982 L24.3012646,25.964712 L45.3155364,39.073922 L45.3155364,42.273152 C45.3155364,44.223052 43.7356092,45.803882 41.7868228,45.803882 C41.1323568,45.803882 40.4908034,45.621812 39.9338617,45.277732 L39.9338617,45.277732 Z M5.26755097,1.138932 L21.0683519,10.894552 L21.0683519,20.555822 L0.0540800971,7.446612 L0.0540800971,4.049672 C0.0540800971,2.160632 1.58456553,0.629272 3.4723568,0.629272 C4.10643447,0.629272 4.72793932,0.805732 5.26755097,1.138932 L5.26755097,1.138932 Z M0.0540800971,11.070162 L21.0683519,24.179542 L21.0683519,33.840812 L0.0540800971,20.731432 L0.0540800971,11.070162 Z" id="Fill-12"></path>
                </g>
            </g>
        </g>
    </g>
</svg>